<?xml version="1.0" standalone="no"?>
<!DOCTYPE svg PUBLIC "-//W3C//DTD SVG 20010904//EN"
 "http://www.w3.org/TR/2001/REC-SVG-20010904/DTD/svg10.dtd">
<svg version="1.0" xmlns="http://www.w3.org/2000/svg"
 width="517.000000pt" height="512.000000pt" viewBox="0 0 517.000000 512.000000"
 preserveAspectRatio="xMidYMid meet">

<g transform="translate(0.000000,512.000000) scale(0.100000,-0.100000)"
fill="#000000" stroke="none">
<path d="M500 4510 l0 -150 150 0 150 0 0 -478 0 -477 -107 -35 c-140 -45
-323 -135 -443 -215 -123 -84 -143 -101 -134 -117 13 -22 176 -218 181 -218 3
0 30 19 61 43 241 182 580 297 878 297 636 0 1192 -384 1418 -979 75 -195 96
-354 96 -715 l0 -256 316 -2 316 -3 19 -75 c77 -300 334 -557 644 -641 115
-32 335 -32 450 0 251 68 468 246 580 476 69 139 88 224 89 390 1 162 -19 253
-83 390 -37 78 -133 216 -185 264 l-26 24 0 291 c0 331 -8 386 -66 506 -51
103 -161 213 -264 264 -109 53 -185 66 -392 66 l-178 0 0 390 c0 372 1 393 20
430 20 39 79 80 115 80 13 0 15 22 15 151 l0 151 -52 -7 c-197 -27 -351 -172
-388 -364 -6 -31 -10 -220 -10 -442 l0 -389 -330 0 -329 0 -11 38 c-5 20 -86
289 -178 597 l-168 560 123 3 123 3 0 149 0 150 -1200 0 -1200 0 0 -150z
m1850 -187 c5 -21 86 -290 178 -598 l168 -560 -224 -3 -225 -2 -76 44 c-287
168 -580 250 -903 251 l-168 0 0 453 0 452 620 0 619 0 11 -37z m2041 -1489
c60 -28 125 -93 153 -153 19 -42 21 -66 24 -260 3 -203 3 -213 -15 -207 -100
39 -116 40 -873 43 l-735 4 -24 62 c-59 153 -173 346 -280 475 l-52 62 878 -2
c874 -3 878 -3 924 -24z m-830 -924 c-74 -94 -128 -204 -160 -330 l-17 -65
-166 -3 -165 -2 -7 172 c-3 95 -9 197 -12 226 l-7 52 287 0 286 0 -39 -50z
m834 35 c270 -57 475 -309 475 -585 0 -324 -276 -600 -600 -600 -218 0 -439
137 -534 330 -117 240 -74 504 113 691 149 149 342 207 546 164z"/>
<path d="M4198 1489 c-43 -22 -78 -81 -78 -129 0 -50 35 -107 80 -130 50 -25
90 -25 140 0 45 23 80 80 80 130 0 50 -35 107 -80 130 -49 25 -94 25 -142 -1z"/>
<path d="M1140 3014 c-208 -27 -407 -101 -580 -217 -96 -64 -273 -241 -337
-337 -95 -142 -163 -302 -199 -470 -26 -119 -26 -381 0 -500 55 -257 169 -466
355 -651 185 -186 394 -300 651 -355 119 -26 381 -26 500 0 257 55 466 169
651 355 186 185 300 394 355 651 26 119 26 381 0 500 -55 257 -169 466 -355
651 -182 182 -382 293 -631 350 -83 19 -331 33 -410 23z m285 -164 c250 -36
469 -145 645 -320 438 -439 438 -1141 0 -1580 -441 -440 -1144 -438 -1585 5
-375 378 -431 966 -132 1410 168 251 451 433 747 480 104 16 231 18 325 5z"/>
<path d="M1225 2725 c-21 -20 -25 -34 -25 -84 0 -75 28 -114 80 -114 52 0 80
39 80 114 0 50 -4 64 -25 84 -15 16 -36 25 -55 25 -19 0 -40 -9 -55 -25z"/>
<path d="M570 2452 c-16 -17 -30 -38 -30 -47 0 -51 82 -135 131 -135 40 0 79
39 79 80 0 41 -71 117 -117 126 -27 5 -37 1 -63 -24z"/>
<path d="M1905 2470 c-34 -14 -84 -74 -91 -107 -5 -27 -1 -37 25 -64 27 -26
37 -30 64 -25 50 10 117 85 117 131 0 23 -54 75 -77 74 -10 0 -27 -4 -38 -9z"/>
<path d="M1225 2435 l-25 -24 0 -321 0 -322 -148 -166 c-81 -92 -156 -178
-165 -192 -23 -33 -21 -62 4 -94 16 -20 29 -26 59 -26 41 0 51 10 338 338 l72
82 0 351 0 350 -25 24 c-15 16 -36 25 -55 25 -19 0 -40 -9 -55 -25z"/>
<path d="M295 1795 c-16 -15 -25 -36 -25 -55 0 -19 9 -40 25 -55 20 -21 34
-25 84 -25 75 0 114 28 114 80 0 52 -39 80 -114 80 -50 0 -64 -4 -84 -25z"/>
<path d="M2094 1797 c-20 -17 -27 -33 -27 -57 0 -52 39 -80 114 -80 50 0 64 4
84 25 16 15 25 36 25 55 0 19 -9 40 -25 55 -20 21 -34 25 -84 25 -48 0 -65 -4
-87 -23z"/>
<path d="M635 1200 c-34 -14 -84 -74 -91 -107 -5 -27 -1 -37 24 -63 17 -16 38
-30 47 -30 41 0 116 63 130 108 9 32 -11 77 -41 91 -29 13 -41 13 -69 1z"/>
<path d="M1839 1181 c-26 -27 -30 -37 -25 -64 8 -40 70 -104 108 -112 58 -13
111 49 89 103 -18 42 -71 91 -108 98 -27 5 -37 1 -64 -25z"/>
<path d="M1254 950 c-37 -15 -54 -50 -54 -113 0 -48 4 -62 25 -82 32 -33 78
-33 110 0 21 20 25 34 25 84 0 48 -4 65 -22 85 -27 29 -55 38 -84 26z"/>
</g>
</svg>
